<svg xmlns="http://www.w3.org/2000/svg" version="1.1" viewBox="-5.0 -10.0 110.0 135.0">
 <path d="m79.816 4.8789h-59.633c-8.4102 0-15.301 6.8906-15.301 15.301v59.637c0 8.4102 6.8906 15.301 15.301 15.301h59.637c8.4102 0 15.301-6.8906 15.301-15.301v-59.633c0-8.4141-6.8906-15.305-15.305-15.305zm-11.676 26.98c10.016 10.02 10.02 26.262 0 36.281-16.117 16.117-43.793 4.6445-43.793-18.141s27.672-34.258 43.793-18.141zm-18.141-13.273c17.348 0 31.414 14.066 31.414 31.414s-14.066 31.414-31.414 31.414-31.414-14.066-31.414-31.414 14.066-31.414 31.414-31.414zm31.867-4.293c5.0547 0 5.0547 7.6797 0 7.6797-5.0547 0-5.0547-7.6797 0-7.6797z" fill-rule="evenodd"/>
<text x="0.0" y="117.5" font-size="5.0" font-weight="bold" font-family="Arbeit Regular, Helvetica, Arial-Unicode, Arial, Sans-serif" fill="#000000">Created by Dwi Budiyanto</text><text x="0.0" y="122.5" font-size="5.0" font-weight="bold" font-family="Arbeit Regular, Helvetica, Arial-Unicode, Arial, Sans-serif" fill="#000000">from Noun Project</text></svg>