<svg xmlns="http://www.w3.org/2000/svg" viewBox="0 0 90 112.5" x="0px" y="0px"><path d="M683.14893,339.91486a45,45,0,1,0,45,45A45,45,0,0,0,683.14893,339.91486Zm-19.7262,26.9508h39.45239a3.97523,3.97523,0,0,1,1.47089.28772L685.605,385.8949a3.479,3.479,0,0,1-4.91223,0l-18.741-18.74164A3.97612,3.97612,0,0,1,663.42273,366.86566Zm43.45239,32.132a4,4,0,0,1-4,4H663.42273a4,4,0,0,1-4-4v-28.132a3.97137,3.97137,0,0,1,.35937-1.63989L678.57184,388.016a6.481,6.481,0,0,0,9.15417,0l18.78968-18.79022a3.9703,3.9703,0,0,1,.35943,1.63989Z" transform="translate(-638.14893 -339.91486)"/><text x="0" y="105" fill="#000000" font-size="5px" font-weight="bold" font-family="'Helvetica Neue', Helvetica, Arial-Unicode, Arial, Sans-serif">Created by fjayv0</text><text x="0" y="110" fill="#000000" font-size="5px" font-weight="bold" font-family="'Helvetica Neue', Helvetica, Arial-Unicode, Arial, Sans-serif">from the Noun Project</text></svg>